<?xml version="1.0" standalone="no"?>
<!DOCTYPE svg PUBLIC "-//W3C//DTD SVG 20010904//EN"
 "http://www.w3.org/TR/2001/REC-SVG-20010904/DTD/svg10.dtd">
<svg version="1.0" xmlns="http://www.w3.org/2000/svg"
 width="834.000000pt" height="834.000000pt" viewBox="0 0 834.000000 834.000000"
 preserveAspectRatio="xMidYMid meet">
<metadata>
Created by potrace 1.14, written by Peter Selinger 2001-2017
</metadata>
<g transform="translate(0.000000,834.000000) scale(0.100000,-0.100000)"
fill="#000000" stroke="none">
<path d="M2783 6059 c-110 -27 -189 -72 -268 -153 -78 -80 -116 -148 -143
-255 -31 -119 -15 -266 40 -374 11 -22 18 -40 16 -41 -2 -2 -38 -26 -80 -56
-43 -29 -78 -53 -79 -54 0 0 -8 -43 -17 -93 l-17 -93 -45 41 c-25 23 -93 87
-151 143 -301 289 -422 402 -437 407 -9 4 -25 3 -34 -2 -35 -19 -30 -46 28
-156 31 -59 76 -144 99 -188 23 -44 66 -125 95 -180 29 -55 70 -133 91 -172
21 -40 66 -125 100 -190 34 -65 73 -138 86 -161 13 -24 19 -42 14 -40 -5 1
-91 82 -192 178 -101 96 -201 192 -222 213 -58 54 -99 50 -111 -13 -3 -19 -8
-46 -11 -60 -8 -38 -14 -71 -21 -115 -8 -51 -4 -46 -68 -90 l-55 -38 -54 50
c-60 54 -166 113 -239 133 -53 14 -182 18 -244 8 -97 -16 -220 -82 -293 -157
-73 -75 -133 -191 -148 -288 -46 -305 137 -575 434 -637 67 -14 169 -15 234
-1 81 17 190 76 257 139 24 22 36 28 47 21 8 -6 46 -32 84 -59 l70 -49 58 11
c95 18 123 23 123 18 0 -5 -24 -62 -57 -136 -90 -201 -283 -650 -283 -658 0
-17 30 -42 49 -42 21 0 43 20 131 119 72 81 70 79 190 211 100 110 83 90 195
215 49 55 96 107 105 116 8 9 55 61 105 117 49 55 91 99 93 98 1 -2 -9 -29
-24 -62 -14 -32 -32 -72 -39 -89 -7 -16 -22 -50 -33 -75 -109 -248 -152 -352
-152 -368 0 -43 22 -46 161 -23 l131 21 64 -45 c35 -25 64 -48 64 -50 0 -3
-11 -39 -25 -80 -79 -236 12 -499 219 -634 105 -69 162 -85 301 -86 135 0 190
13 287 72 159 95 255 254 265 438 7 114 -8 184 -58 285 -164 328 -605 403
-872 149 l-62 -59 -81 56 c-89 60 -89 60 -213 33 -24 -5 -46 -8 -48 -5 -4 4
22 68 80 196 11 25 34 79 52 120 18 41 44 100 58 130 90 197 148 343 142 360
-7 22 -37 34 -62 25 -10 -4 -51 -43 -90 -88 -40 -45 -90 -101 -111 -123 -21
-23 -65 -73 -99 -110 -64 -72 -88 -99 -157 -174 -49 -53 -208 -230 -252 -280
-76 -86 -94 -104 -94 -99 0 6 137 324 175 407 112 240 107 251 -98 211 -120
-23 -113 -24 -182 26 -64 45 -74 58 -56 69 5 3 22 41 37 83 26 69 29 91 29
193 -1 105 -3 122 -32 192 l-31 77 65 42 c36 24 71 52 78 63 7 12 19 56 26 99
6 42 15 77 18 77 7 0 67 -57 324 -304 257 -246 301 -286 312 -286 17 0 55 30
55 44 0 7 -16 44 -36 82 -61 117 -235 445 -274 519 -21 39 -63 120 -95 180
-32 61 -78 147 -102 193 -24 45 -40 82 -37 82 4 0 21 -15 39 -32 29 -30 345
-332 402 -386 14 -13 32 -21 40 -18 8 3 19 6 24 6 13 0 25 35 33 95 4 28 12
78 19 112 12 61 13 63 76 107 l64 45 51 -43 c236 -201 551 -194 761 18 122
122 171 252 162 421 -18 341 -344 585 -674 504z"/>
<path d="M4193 6054 c-133 -34 -230 -113 -286 -231 -28 -61 -32 -79 -34 -171
-2 -84 1 -113 19 -160 42 -113 105 -184 213 -237 68 -34 170 -56 225 -49 14 1
48 5 75 8 54 6 180 63 209 95 18 19 16 22 -64 119 l-82 100 -44 -31 c-111 -78
-254 -2 -256 136 -2 110 73 184 177 175 37 -3 64 -12 87 -30 l34 -26 83 100
c92 110 91 108 17 152 -98 57 -262 79 -373 50z"/>
<path d="M4840 5661 c-105 -32 -161 -107 -163 -220 -2 -135 90 -230 226 -233
139 -3 237 90 237 226 0 106 -48 180 -144 220 -40 17 -113 20 -156 7z m163
-76 c63 -46 86 -159 47 -235 -57 -111 -219 -113 -282 -4 -36 63 -24 170 26
220 49 48 155 58 209 19z"/>
<path d="M6464 5654 c-133 -47 -184 -227 -101 -351 105 -155 361 -116 413 62
28 99 4 188 -69 250 -64 55 -156 70 -243 39z m199 -82 c50 -45 69 -141 41
-207 -16 -40 -77 -95 -107 -96 -64 -5 -102 2 -133 23 -42 28 -74 91 -74 144 0
49 35 121 72 148 56 40 149 35 201 -12z"/>
<path d="M5227 5652 c-3 -6 -2 -417 2 -433 1 -8 45 -6 51 3 3 4 5 83 5 177 0
93 3 167 6 163 3 -4 20 -45 38 -92 57 -147 93 -235 103 -247 22 -28 46 10 109
171 35 91 66 166 69 166 3 0 5 -75 5 -167 -1 -178 2 -187 47 -175 17 4 18 22
18 221 l0 218 -49 1 -50 1 -37 -97 c-21 -53 -50 -128 -65 -167 l-28 -70 -11
30 c-6 17 -35 91 -64 165 l-53 135 -46 2 c-26 1 -48 -1 -50 -5z"/>
<path d="M5786 5651 c-9 -14 -3 -426 6 -432 5 -3 19 -4 32 -2 22 5 22 6 21
179 0 96 2 168 6 162 4 -7 35 -83 69 -168 34 -85 66 -160 71 -166 24 -29 45 0
93 124 63 162 79 202 86 202 3 0 5 -73 5 -162 -1 -173 2 -182 48 -170 16 4 17
20 15 221 l-3 216 -47 3 -46 2 -38 -97 c-20 -54 -50 -129 -65 -168 l-27 -70
-12 30 c-48 124 -65 169 -90 230 l-29 70 -45 1 c-26 1 -48 -1 -50 -5z"/>
<path d="M6870 5441 l0 -219 25 -4 c14 -3 28 -1 31 4 3 5 6 86 6 180 l0 171
100 -154 c137 -212 129 -202 167 -203 20 -1 36 5 40 14 5 12 6 234 2 398 -1
29 -4 32 -31 32 l-30 0 -2 -171 -3 -171 -111 170 -112 170 -41 0 -41 1 0 -218z"/>
<path d="M3951 4650 c0 -236 3 -430 7 -431 10 -1 254 -1 270 0 9 1 12 37 12
145 l0 144 113 0 c61 0 121 1 132 1 19 1 20 8 19 118 l-1 118 -79 2 c-43 1
-103 2 -132 2 l-53 1 3 43 3 42 140 -1 c88 0 143 3 147 10 4 6 7 61 6 123 l-1
113 -293 0 -293 0 0 -430z"/>
<path d="M4671 4508 c0 -89 5 -173 11 -187 40 -107 194 -140 278 -60 45 44 51
68 51 223 1 203 4 186 -31 186 l-30 0 0 -150 c0 -201 -17 -240 -106 -243 -90
-3 -111 44 -109 246 l1 147 -34 0 -33 0 2 -162z"/>
<path d="M5115 4450 c0 -121 4 -220 8 -220 4 0 18 0 32 0 l25 0 0 172 c0 174
3 185 34 129 6 -11 52 -83 101 -160 92 -142 105 -154 158 -143 16 3 17 22 17
223 l0 219 -33 0 -33 0 1 -165 c0 -91 -2 -165 -6 -165 -4 0 -55 74 -114 165
l-107 165 -42 0 -41 0 0 -220z"/>
<path d="M5590 4451 c1 -163 4 -221 13 -222 54 -5 191 2 227 12 64 18 135 91
145 150 21 118 -16 203 -110 252 -32 16 -64 21 -158 25 l-117 4 0 -221z m263
127 c96 -68 72 -242 -38 -278 -43 -14 -144 -20 -151 -8 -5 7 -9 261 -5 305 2
29 145 15 194 -19z"/>
<path d="M3951 3661 l-1 -431 33 -1 c379 -10 478 11 586 122 32 33 59 74 77
117 24 58 28 82 30 185 2 95 -1 129 -17 174 -41 120 -118 198 -229 235 -55 18
-95 22 -272 26 l-207 4 0 -431z m400 151 c48 -29 71 -80 71 -153 0 -80 -25
-128 -82 -156 -49 -26 -139 -32 -141 -10 -1 18 -1 287 0 322 l1 31 58 -6 c33
-3 72 -14 93 -28z"/>
<path d="M4839 3453 c-53 -120 -91 -221 -87 -224 5 -3 21 -4 36 -1 22 3 32 13
48 55 l21 51 97 1 c53 1 99 -1 104 -4 4 -3 16 -26 27 -51 24 -55 27 -58 65
-52 30 4 37 12 23 26 -4 3 -46 98 -93 209 -84 194 -88 202 -117 205 l-30 3
-94 -218z m143 85 c9 -24 25 -66 36 -94 l21 -51 -80 -2 -79 -2 11 28 c30 75
51 130 56 146 8 27 17 20 35 -25z"/>
<path d="M5147 3657 c-2 -7 -2 -20 1 -29 4 -15 16 -18 72 -18 l67 0 1 -186 c0
-102 3 -188 6 -191 3 -4 17 -7 31 -8 28 -1 28 -7 25 253 l-1 132 33 1 c110 3
108 2 108 38 0 19 -9 20 -169 20 -125 0 -171 -3 -174 -12z"/>
<path d="M5558 3453 c-52 -120 -91 -221 -86 -224 5 -3 21 -4 37 -1 23 3 31 12
45 52 10 27 23 50 29 52 7 2 54 4 106 4 l94 -1 20 -52 c21 -56 29 -62 68 -54
l26 6 -92 215 c-89 207 -94 215 -122 218 -30 3 -30 3 -125 -215z m160 42 c18
-47 32 -90 32 -95 0 -5 -34 -9 -75 -9 l-74 0 25 67 c14 37 30 79 36 95 5 15
13 27 17 27 4 0 21 -38 39 -85z"/>
<path d="M3953 2668 l2 -431 285 0 c157 1 295 2 307 2 22 1 23 3 22 121 l-1
120 -169 0 -169 0 0 40 0 40 150 0 150 0 0 110 c0 81 -3 110 -12 111 -7 1 -71
2 -143 3 -71 1 -135 4 -141 8 -6 4 -9 20 -6 36 l4 29 156 0 157 -1 3 122 3
122 -300 0 -300 0 2 -432z"/>
<path d="M4832 2687 c-52 -19 -103 -66 -124 -114 -24 -55 -25 -144 -2 -202 19
-49 83 -107 133 -121 85 -23 189 -2 235 49 16 17 15 19 -8 35 -24 15 -27 15
-62 -9 -20 -14 -44 -26 -53 -26 -75 -6 -127 13 -159 58 -23 33 -40 89 -36 118
2 11 5 29 6 40 6 33 45 89 76 107 48 28 97 28 153 1 48 -24 51 -25 69 -8 16
14 17 21 8 32 -37 45 -164 67 -236 40z"/>
<path d="M5265 2688 c-135 -47 -190 -221 -110 -348 94 -149 337 -131 408 30
41 91 20 206 -50 272 -54 51 -171 73 -248 46z m176 -73 c64 -42 90 -131 61
-210 -27 -72 -72 -105 -145 -108 -94 -2 -166 71 -168 170 -4 142 136 223 252
148z"/>
<path d="M5720 2682 c-69 -34 -89 -134 -36 -186 12 -13 53 -35 92 -50 77 -29
101 -56 90 -99 -7 -29 -59 -57 -95 -50 -14 2 -41 13 -60 24 -34 20 -34 20 -54
1 -24 -25 -16 -39 37 -63 133 -60 281 38 232 155 -18 43 -41 60 -114 86 -66
24 -105 60 -95 88 20 56 74 73 135 43 41 -20 42 -20 60 -1 10 10 18 22 18 24
0 3 -18 15 -40 26 -49 25 -123 26 -170 2z"/>
<path d="M6444 2681 c-45 -27 -64 -59 -64 -107 0 -60 34 -97 114 -124 101 -33
129 -81 76 -130 -36 -34 -86 -34 -131 -1 -29 22 -30 22 -54 3 l-24 -19 23 -22
c45 -42 135 -54 200 -27 47 20 76 64 76 119 0 62 -25 90 -113 123 -83 32 -96
41 -102 76 -11 59 95 98 145 53 21 -19 21 -19 47 8 l27 26 -45 20 c-57 26
-134 27 -175 2z"/>
<path d="M5987 2633 c21 -32 58 -88 84 -126 l45 -69 -1 -94 -1 -94 33 0 33 0
0 95 0 95 81 122 c81 123 81 123 54 126 -15 2 -32 1 -39 -1 -7 -3 -37 -46 -67
-96 -29 -50 -56 -91 -59 -91 -3 0 -18 21 -33 48 -83 140 -80 137 -126 140
l-42 3 38 -58z"/>
<path d="M6690 2662 c0 -28 1 -28 58 -27 31 1 62 0 69 -2 8 -3 12 -50 12 -161
0 -245 -4 -222 31 -222 l30 0 1 98 c0 53 0 138 -1 188 -1 104 -3 101 82 99 44
-2 57 1 61 14 10 39 1 41 -174 41 l-169 0 0 -28z"/>
<path d="M7090 2470 l0 -220 144 0 144 0 4 25 c3 13 3 27 0 30 -3 3 -56 5
-118 5 l-113 0 0 70 0 70 105 0 105 0 -3 28 -3 27 -100 0 -100 0 0 65 0 64
105 0 c97 0 105 2 111 21 3 11 4 23 2 28 -2 4 -67 7 -144 7 l-139 0 0 -220z"/>
<path d="M7462 2470 l0 -220 32 0 32 0 -1 161 c0 88 2 162 6 164 3 3 35 -70
70 -160 59 -153 66 -165 88 -163 20 3 30 20 72 128 27 69 53 134 58 145 6 11
13 30 16 43 15 53 20 11 18 -148 l-2 -170 33 0 33 0 0 220 0 221 -50 -3 -50
-3 -53 -140 c-30 -77 -59 -151 -65 -165 -11 -26 -5 -39 -113 245 l-23 60 -51
3 -50 3 0 -221z"/>
</g>
</svg>
